<svg id="SvgjsSvg1001" width="100" height="100" xmlns="http://www.w3.org/2000/svg" version="1.1" xmlns:xlink="http://www.w3.org/1999/xlink" xmlns:svgjs="http://svgjs.com/svgjs"><defs id="SvgjsDefs1002"></defs><g id="SvgjsG1008" transform="matrix(1,0,0,1,0,0)"><svg xmlns="http://www.w3.org/2000/svg" width="100" height="100" enable-background="new 0 0 24 24" viewBox="0 0 24 24"><path d="m.619 20.001c-.08 0-.125-.001-.133-.001-.276-.008-.493-.238-.486-.514.008-.276.23-.474.514-.486.166-.002 17.149.3 21.001-14.625.069-.268.341-.427.609-.359.267.069.428.342.359.609-3.866 14.983-20.216 15.376-21.864 15.376z" fill="#ffffff" class="color000 svgShape"></path><path d="M23.5 7.598c-.173 0-.341-.089-.434-.25l-1.25-2.165-2.165 1.25c-.239.137-.545.056-.683-.183s-.056-.545.183-.683l2.598-1.5c.238-.139.544-.057.683.183l1.5 2.598c.138.239.056.545-.183.683-.078.046-.164.067-.249.067zM21.5 24c-.276 0-.5-.224-.5-.5v-13c0-.276.224-.5.5-.5s.5.224.5.5v13c0 .276-.224.5-.5.5zM15.5 24c-.276 0-.5-.224-.5-.5v-6c0-.276.224-.5.5-.5s.5.224.5.5v6c0 .276-.224.5-.5.5zM9.5 24c-.276 0-.5-.224-.5-.5v-3c0-.276.224-.5.5-.5s.5.224.5.5v3c0 .276-.224.5-.5.5zM3.5 24c-.276 0-.5-.224-.5-.5v-1.5c0-.276.224-.5.5-.5s.5.224.5.5v1.5c0 .276-.224.5-.5.5zM7.258 11.838c-.128 0-.256-.049-.354-.146l-3.596-3.597c-.188-.188-.196-.491-.018-.688l2.946-3.271c2.093-2.417 5.413-4.083 8.255-4.136.118-.016.267.051.363.146.096.097.148.228.146.363-.053 2.842-1.719 6.162-4.144 8.261l-3.264 2.94c-.094.086-.214.128-.334.128zm-2.907-4.114l2.926 2.926 2.918-2.629c2.076-1.797 3.542-4.542 3.774-6.99-2.448.232-5.192 1.698-6.983 3.767z" fill="#ffffff" class="color000 svgShape"></path><path d="M8.604 14.21c-.045 0-.091-.006-.136-.019-.174-.05-.308-.188-.351-.365l-.707-2.95c-.064-.268.102-.538.37-.603.271-.063.539.102.603.37l.469 1.959c.869-1.359 1.042-3.098 1.06-4.115.005-.276.243-.492.509-.491.276.004.496.233.491.508-.042 2.366-.736 4.34-1.955 5.559-.095.095-.223.147-.353.147zM4.241 7.603c-.039 0-.078-.004-.117-.014l-2.95-.707c-.176-.042-.316-.175-.365-.35-.049-.174 0-.361.127-.489 1.219-1.219 3.193-1.913 5.56-1.955.277-.025.504.215.508.491s-.214.504-.491.509c-1.018.018-2.756.191-4.115 1.06l1.959.469c.268.064.434.334.37.603-.056.229-.26.383-.486.383zM.5 15c-.131 0-.258-.052-.354-.146-.13-.13-.178-.321-.125-.497.165-.552 1.023-3.338 1.695-4.01.809-.81 2.126-.811 2.938 0 .81.81.81 2.128 0 2.938-.671.672-3.458 1.529-4.01 1.694-.048.014-.096.021-.144.021zm2.685-4.261c-.276 0-.552.105-.762.315-.284.284-.772 1.536-1.154 2.677 1.141-.382 2.394-.87 2.677-1.153.42-.42.42-1.104 0-1.523-.21-.211-.486-.316-.761-.316z" fill="#ffffff" class="color000 svgShape"></path></svg></g></svg>